<svg id="svg8" width="208" height="128" fill="none" version="1.1" viewBox="0 0 208 128" xmlns="http://www.w3.org/2000/svg">
 <path id="path338" d="m15 10c-2.761 0-5 2.239-5 5v98c0 2.761 2.239 5 5 5h178c2.761 0 5-2.239 5-5v-98c0-2.761-2.239-5-5-5z" style="fill:#ffffff"/>
 <path id="path2" d="m15 10c-2.761 0-5 2.239-5 5v98c0 2.761 2.239 5 5 5h178c2.761 0 5-2.239 5-5v-98c0-2.761-2.239-5-5-5zm-15 5c0-8.284 6.716-15 15-15h178c8.284 0 15 6.716 15 15v98c0 8.284-6.716 15-15 15h-178c-8.284 0-15-6.716-15-15z" clip-rule="evenodd" fill-rule="evenodd" style="fill:#000000"/>
 <path id="path300" d="m149.6 98-30-33h20v-35h20v35h20z" style="fill:#000000"/>
 <g id="g1159" transform="rotate(-45 1.302 -107.5)">
  <path id="circle1153" d="m-75.67 24c-18.66 0-34 15.34-34 34s15.34 34 34 34c18.66 0 34-15.34 34-34s-15.34-34-34-34zm0 20c7.85 0 14 6.15 14 14s-6.15 14-14 14-14-6.15-14-14 6.15-14 14-14z" style="-inkscape-stroke:none;color:#000000;fill:#000000;paint-order:stroke fill markers"/>
  <path id="path1155" d="m-77.11 84.63-1.121 24.49" style="-inkscape-stroke:none;fill:none;font-variation-settings:normal;paint-order:stroke fill markers;stop-color:#000000;stroke-width:20;stroke:#000000"/>
 </g>
</svg>
