<?xml version="1.0" encoding="UTF-8" standalone="no"?>
<!-- Created with Inkscape (http://www.inkscape.org/) -->

<svg
   width="100"
   height="17"
   viewBox="0 0 100 17.000001"
   version="1.1"
   id="svg5"
   inkscape:version="1.2.2 (1:1.2.2+202305151914+b0a8486541)"
   sodipodi:docname="name.svg"
   xmlns:inkscape="http://www.inkscape.org/namespaces/inkscape"
   xmlns:sodipodi="http://sodipodi.sourceforge.net/DTD/sodipodi-0.dtd"
   xmlns="http://www.w3.org/2000/svg"
   xmlns:svg="http://www.w3.org/2000/svg">
  <sodipodi:namedview
     id="namedview7"
     pagecolor="#ffffff"
     bordercolor="#666666"
     borderopacity="1.0"
     inkscape:showpageshadow="2"
     inkscape:pageopacity="0.0"
     inkscape:pagecheckerboard="0"
     inkscape:deskcolor="#d1d1d1"
     inkscape:document-units="px"
     showgrid="false"
     inkscape:zoom="6.7277216"
     inkscape:cx="47.415755"
     inkscape:cy="7.4319365"
     inkscape:window-width="1476"
     inkscape:window-height="634"
     inkscape:window-x="0"
     inkscape:window-y="0"
     inkscape:window-maximized="0"
     inkscape:current-layer="layer1" />
  <defs
     id="defs2" />
  <g
     inkscape:label="Layer 1"
     inkscape:groupmode="layer"
     id="layer1">
    <path
       id="path916"
       style="font-weight:bold;font-size:22.0428px;line-height:40.7222px;font-family:'Montserrat ExtraBold';-inkscape-font-specification:'Montserrat ExtraBold,  Bold';letter-spacing:0px;stroke-width:0.529134;stroke-dasharray:none;paint-order:stroke fill markers"
       d="m 95.431729,4.0157545 q 1.608908,0 2.580626,0.95579 Q 99,5.9273345 99,7.8548415 V 12.793083 H 95.973338 V 8.3486685 q 0,-1.768209 -1.417753,-1.768209 -0.780563,0 -1.258454,0.509755 -0.461964,0.509754 -0.461964,1.529255 V 12.793083 H 89.808505 V 4.1591265 h 2.883291 v 0.939862 q 0.509754,-0.525689 1.21067,-0.796491 0.700909,-0.286743 1.529263,-0.286743 z m -6.547144,0.143372 -3.074459,8.6339575 H 82.879045 L 81.254201,8.0937875 79.565647,12.793084 H 76.634558 L 73.560106,4.1591265 h 2.86737 l 1.768208,5.224978 1.831926,-5.224978 h 2.580626 l 1.784143,5.272768 1.831927,-5.272768 z M 68.542261,12.936449 q -1.38589,0 -2.50098,-0.573473 -1.115082,-0.573472 -1.75228,-1.592981 -0.621263,-1.0195085 -0.621263,-2.3098185 0,-1.274388 0.621263,-2.293897 0.637198,-1.019508 1.736352,-1.577045 1.11509,-0.57348 2.516908,-0.57348 1.401826,0 2.516908,0.57348 1.11509,0.557537 1.736353,1.577045 0.621263,1.003581 0.621263,2.293897 0,1.29031 -0.621263,2.3098185 -0.621263,1.019509 -1.736353,1.592981 -1.115082,0.573473 -2.516908,0.573473 z m 0,-2.405399 q 0.796491,0 1.306245,-0.5416105 0.509754,-0.557545 0.509754,-1.529263 0,-0.955789 -0.509754,-1.497406 -0.509754,-0.54161 -1.306245,-0.54161 -0.79649,0 -1.306244,0.54161 -0.509754,0.541617 -0.509754,1.497406 0,0.971718 0.509754,1.529263 0.509754,0.5416105 1.306244,0.5416105 z M 62.265919,0.9731645 V 12.793084 h -2.883297 v -0.860209 q -0.844274,1.003574 -2.532836,1.003574 -1.178807,0 -2.150525,-0.54161 -0.971718,-0.557545 -1.545191,-1.577053 -0.557543,-1.0195085 -0.557543,-2.3576095 0,-1.338107 0.557543,-2.341687 0.573473,-1.019501 1.545191,-1.561118 0.971718,-0.541617 2.150525,-0.541617 1.54519,0 2.389471,0.892071 V 0.9731645 Z M 57.486977,10.53105 q 0.780563,0 1.290317,-0.5416105 0.509754,-0.557545 0.509754,-1.529263 0,-0.955789 -0.509754,-1.497406 -0.493826,-0.54161 -1.290317,-0.54161 -0.79649,0 -1.306244,0.54161 -0.509754,0.541617 -0.509754,1.497406 0,0.971718 0.509754,1.529263 0.509754,0.5416105 1.306244,0.5416105 z M 52.548775,4.1591265 48.8212,13.143538 q -0.653122,1.59298 -1.592981,2.230171 -0.939858,0.653126 -2.293892,0.653126 -0.684982,0 -1.385893,-0.223018 -0.684982,-0.20709 -1.115087,-0.557545 l 1.051368,-2.118662 q 0.254877,0.238945 0.605332,0.366382 0.366386,0.143372 0.732771,0.143372 0.430106,0 0.700912,-0.175227 0.286737,-0.175228 0.477894,-0.557545 L 42.305908,4.1591265 h 3.106314 l 2.118664,5.272768 2.134594,-5.272768 z m -13.508448,1.035436 q 0.461965,-0.589401 1.194736,-0.876137 0.748701,-0.302671 1.70449,-0.302671 v 2.723998 q -0.414175,-0.04777 -0.684982,-0.04777 -0.971718,0 -1.529261,0.525682 -0.541614,0.525682 -0.541614,1.608908 V 12.793097 H 36.157032 V 4.1591395 h 2.883295 z m -4.285093,3.29747 q 0,0.03187 -0.04779,0.7487 h -6.276343 q 0.191158,0.669054 0.732771,1.0354435 0.557544,0.350455 1.385894,0.350455 0.621262,0 1.067297,-0.175228 0.461965,-0.175227 0.923929,-0.5734725 l 1.592981,1.6566995 q -1.258455,1.401819 -3.679786,1.401819 -1.513332,0 -2.660278,-0.573473 -1.146946,-0.573472 -1.784138,-1.592981 -0.621263,-1.0195085 -0.621263,-2.3098185 0,-1.274388 0.605333,-2.277962 0.621262,-1.019508 1.704489,-1.59298 1.083227,-0.57348 2.437261,-0.57348 1.290314,0 2.341682,0.541617 1.051367,0.525682 1.6567,1.54519 0.621262,1.00358 0.621262,2.389471 z M 30.15152,6.1662795 q -0.700912,0 -1.178806,0.398245 -0.461965,0.398246 -0.589403,1.083227 h 3.536417 Q 31.79229,6.9627705 31.314395,6.5645245 30.852431,6.1662795 30.15152,6.1662795 Z m -6.164827,-2.007153 v 8.6339575 h -2.883295 v -0.923927 q -0.477894,0.525682 -1.146946,0.79649 -0.669052,0.270802 -1.417753,0.270802 -1.67263,0 -2.676208,-0.987647 -0.987648,-0.987645 -0.987648,-2.9629435 v -4.826732 h 3.026663 v 4.332906 q 0,0.971718 0.366386,1.417754 0.366386,0.4460345 1.067297,0.4460345 0.716841,0 1.162877,-0.4938255 0.461964,-0.509754 0.461964,-1.54519 V 4.1591265 Z M 13.966864,14.083401 q -0.557543,0.68498 -1.369964,1.035436 -0.79649,0.366382 -1.752279,0.366382 -0.923928,0 -1.6726292,-0.238946 Q 8.4232905,15.007328 7.65866,14.449782 6.9099588,13.908165 5.9701003,12.92052 4.5204877,12.681575 3.3894712,11.885084 2.2584547,11.088593 1.6212624,9.8779305 0.99999995,8.6672595 0.99999995,7.2176505 q 0,-1.656699 0.79649045,-2.978878 0.8124203,-1.322173 2.2142438,-2.070872 1.4177528,-0.7487 3.1859616,-0.7487 1.7682088,0 3.1700312,0.7487 1.417753,0.748699 2.214243,2.070872 0.812421,1.322179 0.812421,2.978878 0,1.879717 -1.035438,3.3293265 -1.019507,1.433689 -2.7558561,2.054945 0.3185961,0.350462 0.6212621,0.493825 0.318596,0.143372 0.684982,0.143372 0.939859,0 1.688559,-0.780563 z M 4.1859615,7.2176505 q 0,0.939855 0.3982452,1.672627 0.3982452,0.716844 1.0832274,1.1150895 0.6849814,0.398245 1.5292617,0.398245 0.8442795,0 1.5292616,-0.398245 0.6849815,-0.3982455 1.0832267,-1.1150895 0.3982449,-0.732772 0.3982449,-1.672627 0,-0.939862 -0.3982449,-1.656699 -0.3982452,-0.732772 -1.0832267,-1.131017 -0.6849821,-0.398245 -1.5292616,-0.398245 -0.8442803,0 -1.5292617,0.398245 -0.6849822,0.398245 -1.0832274,1.131017 -0.3982451,0.716837 -0.3982452,1.656699 z" />
  </g>
</svg>
