<svg id="svg5" width="100" height="17" version="1.1" viewBox="0 0 100 17" xmlns="http://www.w3.org/2000/svg">
 <g id="layer1">
  <path id="path916" d="m95.43 4.016q1.609 0 2.581 0.9558 0.9876 0.9558 0.9876 2.883v4.938h-3.027v-4.444q0-1.768-1.418-1.768-0.7806 0-1.258 0.5098-0.462 0.5098-0.462 1.529v4.174h-3.027v-8.634h2.883v0.9399q0.5098-0.5257 1.211-0.7965 0.7009-0.2867 1.529-0.2867zm-6.547 0.1434-3.074 8.634h-2.931l-1.625-4.699-1.689 4.699h-2.931l-3.074-8.634h2.867l1.768 5.225 1.832-5.225h2.581l1.784 5.273 1.832-5.273zm-20.34 8.777q-1.386 0-2.501-0.5735-1.115-0.5735-1.752-1.593-0.6213-1.02-0.6213-2.31 0-1.274 0.6213-2.294 0.6372-1.02 1.736-1.577 1.115-0.5735 2.517-0.5735 1.402 0 2.517 0.5735 1.115 0.5575 1.736 1.577 0.6213 1.004 0.6213 2.294 0 1.29-0.6213 2.31-0.6213 1.02-1.736 1.593-1.115 0.5735-2.517 0.5735zm0-2.405q0.7965 0 1.306-0.5416 0.5098-0.5575 0.5098-1.529 0-0.9558-0.5098-1.497-0.5098-0.5416-1.306-0.5416-0.7965 0-1.306 0.5416-0.5098 0.5416-0.5098 1.497 0 0.9717 0.5098 1.529 0.5098 0.5416 1.306 0.5416zm-6.276-9.558v11.82h-2.883v-0.8602q-0.8443 1.004-2.533 1.004-1.179 0-2.151-0.5416-0.9717-0.5575-1.545-1.577-0.5575-1.02-0.5575-2.358 0-1.338 0.5575-2.342 0.5735-1.02 1.545-1.561t2.151-0.5416q1.545 0 2.389 0.8921v-3.935zm-4.779 9.558q0.7806 0 1.29-0.5416 0.5098-0.5575 0.5098-1.529 0-0.9558-0.5098-1.497-0.4938-0.5416-1.29-0.5416-0.7965 0-1.306 0.5416-0.5098 0.5416-0.5098 1.497 0 0.9717 0.5098 1.529 0.5098 0.5416 1.306 0.5416zm-4.938-6.372-3.728 8.984q-0.6531 1.593-1.593 2.23-0.9399 0.6531-2.294 0.6531-0.685 0-1.386-0.223-0.685-0.2071-1.115-0.5575l1.051-2.119q0.2549 0.2389 0.6053 0.3664 0.3664 0.1434 0.7328 0.1434 0.4301 0 0.7009-0.1752 0.2867-0.1752 0.4779-0.5575l-3.696-8.745h3.106l2.119 5.273 2.135-5.273zm-13.51 1.035q0.462-0.5894 1.195-0.8761 0.7487-0.3027 1.704-0.3027v2.724q-0.4142-0.04777-0.685-0.04777-0.9717 0-1.529 0.5257-0.5416 0.5257-0.5416 1.609v3.967h-3.027v-8.634h2.883zm-4.285 3.297q0 0.03187-0.04779 0.7487h-6.276q0.1912 0.6691 0.7328 1.035 0.5575 0.3505 1.386 0.3505 0.6213 0 1.067-0.1752 0.462-0.1752 0.9239-0.5735l1.593 1.657q-1.258 1.402-3.68 1.402-1.513 0-2.66-0.5735-1.147-0.5735-1.784-1.593-0.6213-1.02-0.6213-2.31 0-1.274 0.6053-2.278 0.6213-1.02 1.704-1.593 1.083-0.5735 2.437-0.5735 1.29 0 2.342 0.5416 1.051 0.5257 1.657 1.545 0.6213 1.004 0.6213 2.389zm-4.604-2.326q-0.7009 0-1.179 0.3982-0.462 0.3982-0.5894 1.083h3.536q-0.1274-0.685-0.6053-1.083-0.462-0.3982-1.163-0.3982zm-6.165-2.007v8.634h-2.883v-0.9239q-0.4779 0.5257-1.147 0.7965-0.6691 0.2708-1.418 0.2708-1.673 0-2.676-0.9876-0.9876-0.9876-0.9876-2.963v-4.827h3.027v4.333q0 0.9717 0.3664 1.418 0.3664 0.446 1.067 0.446 0.7168 0 1.163-0.4938 0.462-0.5098 0.462-1.545v-4.158zm-10.02 9.924q-0.5575 0.685-1.37 1.035-0.7965 0.3664-1.752 0.3664-0.9239 0-1.673-0.2389-0.7487-0.2389-1.513-0.7965-0.7487-0.5416-1.689-1.529-1.45-0.2389-2.581-1.035t-1.768-2.007q-0.6213-1.211-0.6213-2.66 0-1.657 0.7965-2.979 0.8124-1.322 2.214-2.071 1.418-0.7487 3.186-0.7487t3.17 0.7487q1.418 0.7487 2.214 2.071 0.8124 1.322 0.8124 2.979 0 1.88-1.035 3.329-1.02 1.434-2.756 2.055 0.3186 0.3505 0.6213 0.4938 0.3186 0.1434 0.685 0.1434 0.9399 0 1.689-0.7806zm-9.781-6.866q0 0.9399 0.3982 1.673 0.3982 0.7168 1.083 1.115 0.685 0.3982 1.529 0.3982 0.8443 0 1.529-0.3982 0.685-0.3982 1.083-1.115 0.3982-0.7328 0.3982-1.673 0-0.9399-0.3982-1.657-0.3982-0.7328-1.083-1.131-0.685-0.3982-1.529-0.3982-0.8443 0-1.529 0.3982-0.685 0.3982-1.083 1.131-0.3982 0.7168-0.3982 1.657z" style="paint-order:stroke fill markers;stroke-width:.5291"/>
 </g>
</svg>
