<svg id="svg8" width="128" height="128" fill="none" version="1.1" viewBox="0 0 128 128" xmlns="http://www.w3.org/2000/svg">
 <g id="g1006" transform="matrix(.6154 0 0 .6154 -4.8e-7 24.62)" style="stroke-width:1.625">
  <path id="path338" d="m15 10c-2.761 0-5 2.239-5 5v98c0 2.761 2.239 5 5 5h178c2.761 0 5-2.239 5-5v-98c0-2.761-2.239-5-5-5z" style="fill:#ffffff;stroke-width:1.625"/>
  <path id="circle1153" d="m63.9 30.02c-8.722 0-17.44 3.299-24.04 9.896-13.19 13.19-13.19 34.89 0 48.08 10.3 10.3 25.76 12.56 38.33 6.785l12.66 13.87 14.78-13.48-12.56-13.77c7.76-13.04 6.054-30.32-5.123-41.49-6.597-6.597-15.32-9.896-24.04-9.896zm0 19.88c3.562 0 7.125 1.389 9.9 4.164 5.551 5.551 5.551 14.25 0 19.8-5.551 5.551-14.25 5.551-19.8 0-5.551-5.551-5.551-14.25 0-19.8 2.775-2.775 6.336-4.164 9.898-4.164zm85.7 48.11-30-33h20v-35h20v35h20zm-134.6-88c-2.761 0-5 2.239-5 5v98c0 2.761 2.239 5 5 5h178c2.761 0 5-2.239 5-5v-98c0-2.761-2.239-5-5-5zm-15 5c0-8.284 6.716-15 15-15h178c8.284 0 15 6.716 15 15v98c0 8.284-6.716 15-15 15h-178c-8.284 0-15-6.716-15-15z" style="-inkscape-stroke:none;color:#000000;fill:#000000;paint-order:stroke fill markers;stroke-width:1.625"/>
 </g>
</svg>
